<?xml version="1.0" encoding="utf-8"?>
<!-- Generator: Adobe Illustrator 18.0.0, SVG Export Plug-In . SVG Version: 6.00 Build 0)  -->
<!DOCTYPE svg PUBLIC "-//W3C//DTD SVG 1.1//EN" "http://www.w3.org/Graphics/SVG/1.1/DTD/svg11.dtd">
<svg version="1.1" id="Layer_1" xmlns="http://www.w3.org/2000/svg" xmlns:xlink="http://www.w3.org/1999/xlink" x="0px" y="0px"
	 viewBox="-25 250.5 680 216" enable-background="new -25 250.5 680 216" xml:space="preserve">
<g>
	<path fill="#333333" d="M174.7,368.4c0-27.5,21.1-45.6,44.8-45.6c19.6,0,32.4,10.9,32.4,20c0,4.9-3,8.3-7.5,8.3
		c-4.1,0-7.2-3-7.2-7.2c0-2.3,0.8-4.1,2.3-4.9c-3.4-3.4-10.9-7.2-20.7-7.2c-20.7,0-34.6,16.2-34.6,36.5c0,21.5,15.4,35.8,33.1,35.8
		c9.8,0,18.1-3,25.6-8.3v-18.5h-24.1v-8.3h33.5v42.2h-9.4v-7.5c-7.5,5.6-16.2,9-27.1,9C195.1,412.9,174.7,396.3,174.7,368.4z"/>
	<path fill="#333333" d="M276.4,385.7c1.1,12.4,9.4,18.5,21.5,18.5c7.5,0,13.2-2.3,20-6l-0.8,8.7c-5.6,3.4-13.2,5.3-20.3,5.3
		c-18.1,0-29.7-12.1-29.7-29c0-15.4,10.5-29.4,27.5-29.4c16.6,0,25.6,12.4,25.6,26.4c0,2.3,0,3.8-0.4,5.3h-43.3L276.4,385.7
		L276.4,385.7z M276.8,378.6h34.3c-0.8-9.8-6.4-16.6-16.9-16.6C285.5,362,277.9,368,276.8,378.6z"/>
	<path fill="#333333" d="M346.1,365.4c5.3-6,13.2-11.3,21.1-11.3c7.2,0,12.1,2.6,15.1,7.2c1.9,3,2.6,7.2,2.6,11.7v30.5h9v7.9h-26.7
		v-7.9h8.7v-28.6c0-3-0.4-5.6-1.5-7.5c-1.5-3.4-4.9-4.9-9.4-4.9c-7.2,0-13.6,4.5-18.5,9.8v30.9h8.7v7.9h-26.7v-7.9h9v-40.3h-9v-7.9
		h17.7V365.4z"/>
	<path fill="#333333" d="M408.3,385.7c1.5,12.4,9.4,18.5,21.5,18.5c7.5,0,13.2-2.3,19.6-6l-0.8,8.7c-5.6,3.4-13.2,5.3-20.3,5.3
		c-18.1,0-29.7-12.1-29.7-29c0-15.4,10.5-29.4,27.5-29.4c16.6,0,25.6,12.4,25.6,26.4c0,2.3,0,3.8-0.4,5.3h-42.9V385.7z M408.3,378.6
		h34.3c-0.8-9.8-6.4-16.6-16.9-16.6C416.9,362,409.4,368,408.3,378.6z"/>
	<path fill="#333333" d="M470.3,385.7c1.5,12.4,9.4,18.5,21.5,18.5c7.5,0,13.2-2.3,19.6-6l-0.8,8.7c-5.6,3.4-13.2,5.3-20.3,5.3
		c-18.1,0-29.7-12.1-29.7-29c0-15.4,10.5-29.4,27.5-29.4c16.6,0,25.6,12.4,25.6,26.4c0,2.3,0,3.8-0.4,5.3h-42.9V385.7z M470.3,378.6
		h34.3c-0.8-9.8-6.4-16.6-16.9-16.6C479.3,362,471.8,368,470.3,378.6z"/>
</g>
<g>
	<path fill="#666666" d="M64.6,398.9c1.2,6.4,0,11.9-4.3,16.5s-10.1,6.1-16.2,5.2c1.5,10.7-2.4,17.7-12.5,21.7
		c7.3,16.2,27.2,23.9,43.8,16.5c12.2-5.5,24.5-11.6,36.7-17.4c18.1-8.6,25.4-28.8,16.5-46.8c-2.8-5.8-5.5-11.3-8.3-17.1
		c-0.6-0.9-0.3-1.5,0-2.4c8.6-14.1,17.1-28.5,25.7-42.8c2.1-3.7,3.1-7.3,2.1-11.6c-1.5-6.4-5.8-10.4-12.2-11.6
		c-5.5-1.2-11.6,1.8-15,7c-3.7,5.5-6.7,11.6-10.4,17.1c-1.8,2.8-4,4.9-6.1,7c-2.4,2.1-5.8,3.1-9.2,2.8c-5.5-0.9-9.8-3.7-13.5-7.3
		c-4.9-4.6-9.8-9.2-14.7-13.8c-13.8-12.9-27.5-26-41.3-38.9c-5.2-4.9-12.9-4.6-17.7,0.6c-4.6,4.9-4.3,12.5,0.9,17.4
		c8.9,8.6,17.7,16.8,26.6,25.4c9.2,8.6,18.4,17.4,27.2,26c5.8,5.5,11.6,10.7,17.1,16.5c8,8,6.4,21.4-3.1,27.2
		C73.4,398.9,69.2,399.9,64.6,398.9z"/>
	<path fill="#666666" d="M9.8,357c-4,0.3-7.6,2.8-10.1,7.3c-2.1,4.6-0.9,9.8,2.4,13.5c1.5,1.5,3.1,3.1,4.9,4.6
		c10.4,9.8,21.1,19.9,31.5,29.7c2.4,2.1,4.9,3.4,8.3,3.7c5.2,0.3,9.8-2.8,11.9-7.6c2.1-4.9,0.9-10.1-3.4-14.1
		c-11.3-10.7-23-21.7-34.3-32.4C18.4,359.2,15.3,357,9.8,357z"/>
	<path fill="#666666" d="M67.6,394c1.2,0,2.1,0,3.4-0.3c4.6-1.2,8-4.3,9.2-8.9c1.2-4.6,0-8.9-3.7-12.2c-3.1-2.8-6.1-5.8-8.9-8.6
		c-8.9-8.6-18.1-17.1-26.9-25.7c-3.1-3.1-7-4-11-2.8c-4.6,0.9-8,4-9.2,8.6c-1.2,4.9,0,8.9,3.4,12.2c11.6,11,23.6,22.3,35.2,33.4
		C61.2,392.2,64,393.7,67.6,394z"/>
	<path fill="#666666" d="M26.6,437.8c5.2,0,9.5-2.8,11.3-7.6c1.8-4.9,0.9-9.5-2.8-13.5c-1.5-1.5-3.1-2.8-4.3-4.3
		C22,403.8,13.2,395.6,4.3,387c-2.4-2.4-5.8-3.7-9.2-3.4c-5.2,0.6-8.9,3.1-10.7,8.3c-1.8,4.9-0.6,9.5,3.1,13.2
		c10.1,9.5,19.9,19,30,28.5C19.9,436.3,23,437.8,26.6,437.8z"/>
	<path fill="#666666" d="M64.6,398.9c4.9,0.6,9.2,0,13.2-2.4c9.5-6.1,11-19.3,3.1-27.2c-5.5-5.5-11.6-11-17.1-16.5
		c-9.2-8.6-18.4-17.4-27.2-26s-17.7-16.8-26.6-25.4c-5.2-4.9-5.5-12.5-0.9-17.4c4.9-5.2,12.5-5.5,17.7-0.6
		c13.8,12.9,27.5,26,41.3,38.9c4.9,4.6,9.8,9.2,14.7,13.8c4,3.7,8.3,6.4,13.5,7.3c3.4,0.6,6.7-0.3,9.2-2.8c2.4-2.1,4.6-4.6,6.1-7
		c3.7-5.5,7-11.3,10.4-17.1c3.4-5.2,9.5-8,15-7c6.4,1.2,10.7,5.2,12.2,11.6c0.9,4,0,8-2.1,11.6c-8.6,14.1-17.1,28.5-25.7,42.8
		c-0.6,0.9-0.6,1.5,0,2.4c2.8,5.8,5.5,11.3,8.3,17.1c8.6,18.1,1.5,38.2-16.5,46.8c-12.2,5.8-24.2,11.9-36.7,17.4
		c-16.5,7.3-36.7-0.3-43.8-16.5c9.8-3.7,14.1-11,12.5-21.7c6.4,0.9,11.9-0.6,16.2-5.2C64.6,410.9,65.8,405.4,64.6,398.9z"/>
	<path fill="#666666" d="M9.8,357c5.5,0,8.6,2.1,11.3,4.6c11.3,10.7,22.9,21.7,34.3,32.4c4.3,4,5.5,9.2,3.4,14.1
		c-1.8,4.6-6.7,7.6-11.9,7.6c-3.1,0-5.8-1.2-8.3-3.7c-10.4-9.8-21.1-19.9-31.5-29.7c-1.5-1.5-3.4-3.1-4.9-4.6
		c-3.4-3.4-4.6-8.9-2.4-13.5C1.8,359.8,5.8,357.3,9.8,357z"/>
	<path fill="#666666" d="M67.6,394c-3.4-0.3-6.1-1.8-8.6-4c-11.6-11-23.6-22.3-35.2-33.4c-3.7-3.4-4.9-7.6-3.4-12.2
		c1.2-4.6,4.3-7.6,9.2-8.6c4-0.9,8,0,11,2.8c9.2,8.6,18.1,17.1,26.9,25.7c3.1,2.8,6.1,5.5,8.9,8.6c3.4,3.4,4.9,7.3,3.7,12.2
		c-1.2,4.6-4.3,7.6-9.2,8.9C69.8,394,68.5,394,67.6,394z"/>
	<path fill="#666666" d="M26.6,437.8c-3.7,0-6.4-1.5-9.2-4c-10.1-9.5-20.2-19-30-28.5c-3.7-3.7-4.9-8.3-3.1-13.2
		c1.8-4.9,5.5-7.6,10.7-8.3c3.4-0.3,6.7,0.9,9.2,3.4c8.9,8.6,17.7,16.8,26.6,25.4c1.5,1.5,3.1,2.8,4.3,4.3c3.7,4,4.6,8.3,2.8,13.5
		C36.1,435.1,31.5,437.8,26.6,437.8z"/>
</g>
<g>
	<path fill="#3FAC49" d="M84.2,276.2c-0.6-5.2-1.2-11.3-1.8-17.4c-0.3-3.1-2.8-4.9-5.2-4.6c-2.8,0.3-4.6,2.8-4.3,5.8
		c0.6,5.8,1.2,11.6,1.8,17.4c0.3,3.1,2.4,5.2,5.2,4.9C82.6,282.4,84.5,280.2,84.2,276.2z"/>
	<path fill="#3FAC49" d="M108.9,298c0.9-0.3,2.1-0.6,3.1-1.2c4.9-3.4,9.8-7,14.7-10.7c2.4-1.8,2.8-4.6,1.2-7c-1.5-2.1-4.6-2.4-7-0.9
		c-1.8,1.2-3.7,2.8-5.5,4c-3.1,2.4-6.4,4.6-9.5,7c-1.5,1.2-2.1,3.4-1.5,5.5C105,296.4,106.8,297.7,108.9,298z"/>
	<path fill="#3FAC49" d="M52,263.4c-1.8,0-3.4,0.9-4.3,2.8c-0.9,1.8-0.6,3.7,0.3,5.2c3.7,4.9,7,9.8,10.7,14.4c1.8,2.4,4.9,3.1,7,1.2
		c2.4-1.8,2.8-4.6,0.9-7c-3.4-4.9-7-9.5-10.4-14.4C55.4,264,53.9,263.1,52,263.4z"/>
	<path fill="#3FAC49" d="M95.8,286c2.4,0,4-0.6,4.6-2.4c2.8-5.8,5.2-11.6,7.7-17.4c0.9-2.4-0.3-5.2-2.4-6.1
		c-2.4-0.9-5.2-0.3-6.1,2.1c-2.8,5.8-5.2,11.6-7.7,17.7C90.3,283,92.7,286,95.8,286z"/>
	<path fill="#3FAC49" d="M84.2,276.2c0,4-1.8,6.1-4.6,6.4c-2.8,0.3-4.9-1.8-5.2-4.9c-0.6-5.8-1.2-11.6-1.8-17.4
		c-0.3-3.1,1.5-5.5,4.3-5.8c2.8-0.3,4.9,1.5,5.2,4.6C82.9,264.9,83.5,271,84.2,276.2z"/>
	<path fill="#3FAC49" d="M108.9,298c-2.1-0.3-4-1.5-4.6-3.4c-0.6-1.8-0.3-4,1.5-5.5c3.1-2.4,6.1-4.6,9.5-7c1.8-1.2,3.7-2.8,5.5-4
		c2.4-1.5,5.2-1.2,7,0.9c1.8,2.1,1.2,5.2-1.2,7c-4.9,3.7-9.8,7-14.7,10.7C111.1,297.4,109.9,297.4,108.9,298z"/>
	<path fill="#3FAC49" d="M52,263.4c1.8,0,3.4,0.9,4.3,2.1c3.4,4.6,7,9.5,10.4,14.4c1.8,2.4,1.5,5.5-0.9,7c-2.1,1.5-5.2,1.2-7-1.2
		c-3.7-4.9-7-9.8-10.7-14.4c-1.2-1.5-1.5-3.4-0.3-5.2C48.7,264.3,50.2,263.4,52,263.4z"/>
	<path fill="#3FAC49" d="M95.8,286c-3.1,0-5.5-3.1-4.3-6.4c2.4-5.8,4.9-11.9,7.6-17.7c1.2-2.4,4-3.1,6.1-2.1
		c2.4,0.9,3.7,3.7,2.4,6.1c-2.4,5.8-5.2,11.6-7.7,17.4C99.8,285.4,98.2,286,95.8,286z"/>
</g>
<text transform="matrix(1 0 0 1 174.7315 462.0263)"><tspan x="0" y="0" fill="#808285" font-family="'ArialMT'" font-size="42" letter-spacing="-3">Y</tspan><tspan x="24.4" y="0" fill="#808285" font-family="'ArialMT'" font-size="42">our</tspan><tspan x="87" y="0" fill="#808285" font-family="'ArialMT'" font-size="42" letter-spacing="-1"> </tspan><tspan x="96.9" y="0" fill="#808285" font-family="'ArialMT'" font-size="42">time.</tspan><tspan x="191" y="0" fill="#808285" font-family="'ArialMT'" font-size="42" letter-spacing="-6"> </tspan><tspan x="196.2" y="0" fill="#808285" font-family="'ArialMT'" font-size="42">On</tspan><tspan x="253.5" y="0" fill="#808285" font-family="'ArialMT'" font-size="42" letter-spacing="-1"> </tspan><tspan x="263.3" y="0" fill="#808285" font-family="'ArialMT'" font-size="42">your</tspan><tspan x="347.5" y="0" fill="#808285" font-family="'ArialMT'" font-size="42" letter-spacing="-1"> </tspan><tspan x="357.4" y="0" fill="#808285" font-family="'ArialMT'" font-size="42">terms.</tspan></text>
</svg>
